<svg height="512" viewBox="0 -73 512.00023 512" width="512" xmlns="http://www.w3.org/2000/svg"><path d="m509.492188 343.035156-123.085938-187.398437c-2.820312-4.296875-7.617188-6.882813-12.757812-6.882813-5.140626 0-9.9375 2.585938-12.757813 6.882813l-59.03125 89.871093-104.886719-159.691406c-2.820312-4.296875-7.617187-6.882812-12.757812-6.882812-5.144532 0-9.9375 2.585937-12.761719 6.882812l-168.949219 257.21875c-3.078125 4.691406-3.335937 10.691406-.671875 15.628906 2.664063 4.9375 7.820313 8.015626 13.433594 8.015626h337.894531.03125 143.542969c5.613281 0 10.769531-3.078126 13.433594-8.015626 2.664062-4.9375 2.40625-10.9375-.675781-15.628906zm-135.84375-151.210937 16.601562 25.273437-16.601562 25.277344-16.601563-25.277344zm-189.433594-69.820313 48.144531 73.296875-16.757813 31.511719-17.90625-33.675781c-2.648437-4.984375-7.832031-8.097657-13.476562-8.097657s-10.828125 3.113282-13.480469 8.097657l-17.910156 33.679687-16.757813-31.515625zm-140.660156 214.148438 73.40625-111.757813 22.390624 42.101563c2.648438 4.980468 7.832032 8.097656 13.476563 8.097656s10.828125-3.117188 13.476563-8.097656l17.910156-33.679688 17.90625 33.679688c2.652344 4.980468 7.835937 8.097656 13.480468 8.097656 5.644532 0 10.828126-3.117188 13.476563-8.097656l22.386719-42.101563 37.636718 57.296875v.003906l7.636719 11.628907 28.132813 42.828125zm317.84375 0-41.277344-62.839844 18.660156-28.40625 22.109375 33.65625c2.820313 4.296875 7.617187 6.882812 12.757813 6.882812 5.140624 0 9.933593-2.585937 12.757812-6.886718l22.105469-33.65625 59.933593 91.25zm0 0"/><path d="m315.574219 102.882812c28.363281 0 51.441406-23.074218 51.441406-51.441406 0-28.363281-23.078125-51.441406-51.441406-51.441406-28.367188 0-51.441407 23.078125-51.441407 51.441406 0 28.367188 23.074219 51.441406 51.441407 51.441406zm0-72.351562c11.53125 0 20.910156 9.378906 20.910156 20.910156s-9.378906 20.914063-20.910156 20.914063-20.914063-9.382813-20.914063-20.914063 9.382813-20.910156 20.914063-20.910156zm0 0"/></svg>