<svg height="480" viewBox="0 0 480 480" width="480" xmlns="http://www.w3.org/2000/svg"><path d="m240 0c-132.546875 0-240 107.453125-240 240s107.453125 240 240 240 240-107.453125 240-240c-.148438-132.484375-107.515625-239.851562-240-240zm0 464c-123.710938 0-224-100.289062-224-224s100.289062-224 224-224 224 100.289062 224 224c-.140625 123.652344-100.347656 223.859375-224 224zm0 0"/><path d="m391.832031 94.351562c-.558593-2.644531-2.414062-4.832031-4.9375-5.808593l-144-56h-.0625c-.617187-.191407-1.246093-.347657-1.878906-.464844-1.277344-.152344-2.574219.007813-3.777344.464844h-.070312l-144 56c-2.199219.859375-3.90625 2.640625-4.667969 4.875s-.496094 4.691406.722656 6.710937l-60.128906 136.671875c-.945312 2.160157-.890625 4.628907.152344 6.746094 1.042968 2.113281 2.964844 3.664063 5.257812 4.230469l54.101563 139.132812c.976562 2.523438 3.164062 4.378906 5.808593 4.9375.542969.105469 1.09375.15625 1.648438.152344 1.417969-.039062 2.800781-.460938 4-1.222656l136.800781 60.191406c1.039063.339844 2.109375.570312 3.199219.679688 1.089844-.109376 2.160156-.339844 3.199219-.679688l136.800781-60.191406c1.199219.761718 2.582031 1.183594 4 1.222656.554688 0 1.105469-.058594 1.648438-.167969 2.644531-.558593 4.832031-2.414062 5.808593-4.9375l54.144531-139.132812c2.289063-.566407 4.210938-2.117188 5.253907-4.230469 1.042969-2.117188 1.097656-4.585938.152343-6.746094l-60.167968-136.65625c1.050781-1.730468 1.402344-3.796875.992187-5.777344zm-143.832031-42.65625 121.671875 47.320313-51.601563 51.609375-44.527343 44.527344c-7.480469-5.636719-16.269531-9.28125-25.542969-10.59375zm-16 0v132.863282c-9.273438 1.308594-18.058594 4.953125-25.535156 10.59375l-96.136719-96.136719zm-130.816406 60.800782 93.96875 93.96875c-5.640625 7.476562-9.285156 16.261718-10.59375 25.535156h-135.949219zm-2.167969 257.167968-47.320313-121.664062h132.863282c1.308594 9.273438 4.953125 18.058594 10.59375 25.535156zm132.984375 61.726563-119.496094-52.574219 93.960938-93.96875c7.476562 5.640625 16.261718 9.285156 25.535156 10.59375zm8-151.390625c-19.082031 0-35.507812-13.480469-39.230469-32.195312-3.726562-18.714844 6.289063-37.453126 23.917969-44.757813 17.632812-7.304687 37.964844-1.140625 48.566406 14.726563 10.605469 15.863281 8.523438 37.011718-4.964844 50.507812-7.484374 7.527344-17.671874 11.746094-28.289062 11.71875zm8 151.390625v-135.949219c9.273438-1.3125 18.0625-4.957031 25.542969-10.59375l3.921875 3.921875 90.03125 90.046875zm132.984375-61.71875-51.601563-51.609375-44.527343-44.527344c5.628906-7.480468 9.273437-16.265625 10.585937-25.535156h132.863282zm50.40625-137.671875h-135.949219c-1.3125-9.269531-4.957031-18.054688-10.585937-25.535156l93.960937-93.960938zm0 0"/></svg>