<svg id="Capa_1" enable-background="new 0 0 512 512" height="512" viewBox="0 0 512 512" width="512" xmlns="http://www.w3.org/2000/svg"><g><path d="m497 321.041h-189.28v-61.398c0-15.29-2.253-30.061-6.425-44.012l45.796-45.797c5.858-5.858 5.858-15.355 0-21.213l-85.813-85.813c-2.813-2.813-6.628-4.394-10.606-4.394s-7.793 1.581-10.606 4.394l-47.822 47.822c-12.274-3.163-25.136-4.847-38.383-4.847-84.84 0-153.861 69.021-153.861 153.86 0 84.838 69.021 153.859 153.86 153.859h274.196l17.883 32.341c2.642 4.777 7.669 7.742 13.127 7.742h37.934c8.284 0 15-6.716 15-15v-102.544c0-8.284-6.716-15-15-15zm-75.098 30v32.462h-114.182v-32.462zm-171.23-256.413 64.6 64.6-26.504 26.504c-14.971-27.217-37.937-49.439-65.715-63.485zm11.895 288.875h-108.707c-68.297 0-123.86-55.564-123.86-123.86s55.563-123.859 123.86-123.859 123.86 55.563 123.86 123.859v123.86zm219.433 40.083h-14.088l-16.01-28.954v-43.591h30.098z"/><path d="m153.86 188.23c-39.377 0-71.414 32.036-71.414 71.414s32.036 71.414 71.414 71.414 71.414-32.036 71.414-71.414-32.037-71.414-71.414-71.414zm0 30c5.933 0 11.573 1.263 16.68 3.52l-54.573 54.573c-2.257-5.107-3.52-10.747-3.52-16.68-.001-22.835 18.577-41.413 41.413-41.413zm0 82.827c-5.933 0-11.573-1.263-16.68-3.52l54.573-54.573c2.257 5.107 3.52 10.747 3.52 16.68 0 22.835-18.578 41.413-41.413 41.413z"/></g></svg>