<svg height="512" viewBox="0 0 512 512" width="512" xmlns="http://www.w3.org/2000/svg"><path d="m271 179.503906v-49.503906h143.667969v-130h-173.835938l.167969 179.503906h-241v332.496094h512v-332.496094zm0-149.503906h113.667969v70h-113.667969zm-.074219 250.167969c0 8.179687-6.652343 14.832031-14.832031 14.832031s-14.832031-6.652344-14.832031-14.832031c0-8.179688 6.652343-14.835938 14.832031-14.835938s14.832031 6.65625 14.832031 14.835938zm-29.925781-42.214844c-17.316406 6.210937-29.738281 22.785156-29.738281 42.214844 0 24.71875 20.109375 44.832031 44.832031 44.832031s44.832031-20.113281 44.832031-44.832031c0-19.496094-12.511719-36.117188-29.925781-42.277344v-28.386719h197.25l-212.25 166.453125-212.25-166.453125h197.25zm-211 244.046875v-245.152344l226 177.234375 226-177.234375v245.152344zm0 0"/></svg>