<?xml version="1.0" encoding="iso-8859-1"?>
<!-- Generator: Adobe Illustrator 19.0.0, SVG Export Plug-In . SVG Version: 6.00 Build 0)  -->
<svg version="1.1" id="Layer_1" xmlns="http://www.w3.org/2000/svg" xmlns:xlink="http://www.w3.org/1999/xlink" x="0px" y="0px"
	 viewBox="0 0 512 512" style="enable-background:new 0 0 512 512;" xml:space="preserve">
<g>
	<g>
		<path d="M148.454,147.934c-1.664-5.291-7.303-8.23-12.59-6.564c-5.289,1.664-8.227,7.301-6.564,12.589
			c0.802,2.55,1.209,5.214,1.209,7.923c0,14.536-11.822,26.363-26.353,26.363c-14.536,0-26.363-11.826-26.363-26.363
			c0-14.532,11.826-26.353,26.363-26.353c2.618,0,5.201,0.381,7.677,1.132c5.306,1.61,10.912-1.384,12.523-6.689
			c1.61-5.306-1.384-10.912-6.69-12.523c-4.367-1.326-8.912-1.999-13.509-1.999c-25.608,0-46.441,20.829-46.441,46.431
			c0,25.608,20.833,46.441,46.441,46.441c25.602,0,46.431-20.833,46.431-46.441C150.588,157.129,149.87,152.436,148.454,147.934z"/>
	</g>
</g>
<g>
	<g>
		<path d="M501.961,379.482c-5.545,0-10.039,4.496-10.039,10.039v8.031c0,5.544,4.495,10.039,10.039,10.039S512,403.097,512,397.553
			v-8.031C512,383.978,507.505,379.482,501.961,379.482z"/>
	</g>
</g>
<g>
	<g>
		<path d="M501.961,369.443c5.545,0,10.039-4.496,10.039-10.039V256c0-5.544-4.495-10.039-10.039-10.039H165.553
			c25.898-18.966,42.752-49.589,42.752-84.078c0-57.426-46.72-104.147-104.147-104.147C46.725,57.736,0,104.456,0,161.882v188.235
			c0,57.426,46.725,104.147,104.157,104.147h397.804c5.545,0,10.039-4.496,10.039-10.039v-16.555
			c0-5.544-4.495-10.039-10.039-10.039s-10.039,4.496-10.039,10.039v6.515h-80.314V266.039h80.314v93.365
			C491.922,364.948,496.416,369.443,501.961,369.443z M104.157,77.814c46.355,0,84.068,37.712,84.068,84.068
			c0,46.361-37.713,84.078-84.068,84.078c-46.361,0-84.078-37.717-84.078-84.078C20.078,115.526,57.796,77.814,104.157,77.814z
			 M391.529,434.186h-36.141v-26.815c0-5.544-4.495-10.039-10.039-10.039s-10.039,4.496-10.039,10.039v26.815h-34.806v-8.384
			c0-5.544-4.495-10.039-10.039-10.039s-10.039,4.496-10.039,10.039v8.384H245.63v-26.815c0-5.544-4.495-10.039-10.039-10.039
			c-5.545,0-10.039,4.496-10.039,10.039v26.815h-34.806v-8.384c0-5.544-4.495-10.039-10.039-10.039
			c-5.545,0-10.039,4.496-10.039,10.039v8.384h-34.806v-26.815c0-5.544-4.495-10.039-10.039-10.039
			c-5.545,0-10.039,4.496-10.039,10.039v26.815h-11.625c-8.037,0-15.805-1.156-23.17-3.273v-11.786
			c0-5.544-4.495-10.039-10.039-10.039c-5.545,0-10.039,4.496-10.039,10.039v3.053c-24.443-14.721-40.83-41.511-40.83-72.063
			V223.283c18.966,25.901,49.589,42.756,84.078,42.756h11.625v26.815c0,5.544,4.495,10.039,10.039,10.039
			c5.545,0,10.039-4.496,10.039-10.039v-26.815h89.69v26.815c0,5.544,4.495,10.039,10.039,10.039
			c5.545,0,10.039-4.496,10.039-10.039v-26.815h89.68v26.815c0,5.544,4.495,10.039,10.039,10.039s10.039-4.496,10.039-10.039
			v-26.815h36.141V434.186z"/>
	</g>
</g>
<g>
	<g>
		<path d="M451.765,323.012c-14.946,0-27.106,12.159-27.106,27.106c0,14.946,12.159,27.106,27.106,27.106
			c14.946,0,27.106-12.16,27.106-27.106C478.871,335.171,466.711,323.012,451.765,323.012z M451.765,357.145
			c-3.875,0-7.027-3.153-7.027-7.027s3.152-7.027,7.027-7.027s7.027,3.153,7.027,7.027S455.64,357.145,451.765,357.145z"/>
	</g>
</g>
<g>
</g>
<g>
</g>
<g>
</g>
<g>
</g>
<g>
</g>
<g>
</g>
<g>
</g>
<g>
</g>
<g>
</g>
<g>
</g>
<g>
</g>
<g>
</g>
<g>
</g>
<g>
</g>
<g>
</g>
</svg>
